<svg xmlns="http://www.w3.org/2000/svg" xmlns:xlink="http://www.w3.org/1999/xlink" xmlns:lucid="lucid" width="280" height="100"><g transform="translate(-200 -180)" lucid:page-tab-id="0_0"><path d="M220 206a6 6 0 0 1 6-6h228a6 6 0 0 1 6 6v48a6 6 0 0 1-6 6H226a6 6 0 0 1-6-6z" stroke="#000" stroke-opacity="0" fill="#fff" fill-opacity="0"/><use xlink:href="#a" transform="matrix(1,0,0,1,225,205) translate(48.82222222222222 29.166666666666664)"/><use xlink:href="#b" transform="matrix(1,0,0,1,225,205) translate(104.17777777777778 29.166666666666664)"/><defs><path fill="#3a414a" d="M771-581v55H638v-55c0-4-3-7-6-7H190c-4 0-7 3-7 7v148c0 4 3 7 7 7h442c76 0 139 62 139 139v148C771-62 708 0 632 0H190C113 0 51-62 51-139v-55h132v55c0 4 3 7 7 7h442c3 0 6-3 6-7v-148c0-4-3-7-6-7H190c-77 0-139-62-139-139v-148c0-77 62-139 139-139h442c76 0 139 62 139 139" id="c"/><path fill="#3a414a" d="M502-580c76 0 138 62 138 138v218H182v86c0 4 3 7 7 7h451V0H189C113 0 51-62 51-138v-304c0-76 62-138 138-138h313zM182-356h327v-86c0-4-3-7-7-7H189c-4 0-7 3-7 7v86" id="d"/><path fill="#3a414a" d="M189-580h313c76 0 138 62 138 138v304C640-62 578 0 502 0H189C113 0 51-62 51-138v-304c0-76 62-138 138-138zm313 131H189c-4 0-7 3-7 7v304c0 4 3 7 7 7h313c4 0 7-3 7-7v-304c0-4-3-7-7-7" id="e"/><g id="a"><use transform="matrix(0.022222222222222223,0,0,0.022222222222222223,0,0)" xlink:href="#c"/><use transform="matrix(0.022222222222222223,0,0,0.022222222222222223,18.266666666666666,0)" xlink:href="#d"/><use transform="matrix(0.022222222222222223,0,0,0.022222222222222223,33.13333333333333,0)" xlink:href="#e"/></g><path fill="#3a414a" d="M503-580c76 0 138 62 138 138V0H190C114 0 52-62 52-138v-218h458v-86c0-4-3-7-7-7H52v-131h451zm7 449v-93H183v86c0 4 3 7 7 7h320" id="f"/><path fill="#3a414a" d="M629-580h151L460 0H340L21-580h151l228 421" id="g"/><path fill="#3a414a" d="M190-580h322v131H190c-4 0-7 3-7 7V0H52v-442c0-76 62-138 138-138" id="h"/><g id="b"><use transform="matrix(0.022222222222222223,0,0,0.022222222222222223,0,0)" xlink:href="#c"/><use transform="matrix(0.022222222222222223,0,0,0.022222222222222223,18.266666666666666,0)" xlink:href="#f"/><use transform="matrix(0.022222222222222223,0,0,0.022222222222222223,33.13333333333333,0)" xlink:href="#g"/><use transform="matrix(0.022222222222222223,0,0,0.022222222222222223,50.44444444444444,0)" xlink:href="#d"/><use transform="matrix(0.022222222222222223,0,0,0.022222222222222223,65.26666666666667,0)" xlink:href="#h"/></g></defs></g></svg>